HIERARCHY
ROOT Hips
{
  OFFSET -4.35178 90.3298 111.633
  CHANNELS 6 Xposition Yposition Zposition Zrotation Xrotation Yrotation
  JOINT LeftUpLeg
  {
    OFFSET 0.103456 1.85784 10.5485
    CHANNELS 6 Xposition Yposition Zposition Zrotation Xrotation Yrotation
    JOINT LeftLeg
    {
      OFFSET 43.5 -4.2e-05 0
      CHANNELS 6 Xposition Yposition Zposition Zrotation Xrotation Yrotation
      JOINT LeftFoot
      {
        OFFSET 42.3722 1.9e-05 0
        CHANNELS 6 Xposition Yposition Zposition Zrotation Xrotation Yrotation
        JOINT LeftToe
        {
          OFFSET 17.3 0 0
          CHANNELS 6 Xposition Yposition Zposition Zrotation Xrotation Yrotation
          End Site
          {
            OFFSET 0 0 0
          }
        }
      }
    }
  }
  JOINT RightUpLeg
  {
    OFFSET 0.103456 1.85782 -10.5485
    CHANNELS 6 Xposition Yposition Zposition Zrotation Xrotation Yrotation
    JOINT RightLeg
    {
      OFFSET 43.5 -2.7e-05 0
      CHANNELS 6 Xposition Yposition Zposition Zrotation Xrotation Yrotation
      JOINT RightFoot
      {
        OFFSET 42.3723 0 0
        CHANNELS 6 Xposition Yposition Zposition Zrotation Xrotation Yrotation
        JOINT RightToe
        {
          OFFSET 17.3 0 1.7e-05
          CHANNELS 6 Xposition Yposition Zposition Zrotation Xrotation Yrotation
          End Site
          {
            OFFSET 0 0 0
          }
        }
      }
    }
  }
  JOINT Spine
  {
    OFFSET 6.90197 -2.60373 0
    CHANNELS 6 Xposition Yposition Zposition Zrotation Xrotation Yrotation
    JOINT Spine1
    {
      OFFSET 12.5881 0 0
      CHANNELS 6 Xposition Yposition Zposition Zrotation Xrotation Yrotation
      JOINT Spine2
      {
        OFFSET 12.3432 -1.8e-05 0
        CHANNELS 6 Xposition Yposition Zposition Zrotation Xrotation Yrotation
        JOINT Neck
        {
          OFFSET 25.8329 2.3e-05 0
          CHANNELS 6 Xposition Yposition Zposition Zrotation Xrotation Yrotation
          JOINT Head
          {
            OFFSET 11.7666 0 0
            CHANNELS 6 Xposition Yposition Zposition Zrotation Xrotation Yrotation
            End Site
            {
              OFFSET 0 0 0
            }
          }
        }
        JOINT LeftShoulder
        {
          OFFSET 19.7459 -1.48035 6.0001
          CHANNELS 6 Xposition Yposition Zposition Zrotation Xrotation Yrotation
          JOINT LeftArm
          {
            OFFSET 11.2841 1.8e-05 -2e-05
            CHANNELS 6 Xposition Yposition Zposition Zrotation Xrotation Yrotation
            JOINT LeftForeArm
            {
              OFFSET 33 -1.3e-05 1.9e-05
              CHANNELS 6 Xposition Yposition Zposition Zrotation Xrotation Yrotation
              JOINT LeftHand
              {
                OFFSET 25.2 3.2e-05 1.1e-05
                CHANNELS 6 Xposition Yposition Zposition Zrotation Xrotation Yrotation
                End Site
                {
                  OFFSET 0 0 0
                }
              }
            }
          }
        }
        JOINT RightShoulder
        {
          OFFSET 19.7461 -1.48036 -6.00008
          CHANNELS 6 Xposition Yposition Zposition Zrotation Xrotation Yrotation
          JOINT RightArm
          {
            OFFSET 11.2841 0 0
            CHANNELS 6 Xposition Yposition Zposition Zrotation Xrotation Yrotation
            JOINT RightForeArm
            {
              OFFSET 33.0001 1.6e-05 0
              CHANNELS 6 Xposition Yposition Zposition Zrotation Xrotation Yrotation
              JOINT RightHand
              {
                OFFSET 25.1998 0.000123 0.000432
                CHANNELS 6 Xposition Yposition Zposition Zrotation Xrotation Yrotation
                End Site
                {
                  OFFSET 0 0 0
                }
              }
            }
          }
        }
      }
    }
  }
}
MOTION
Frames:	5
Frame Time:	0.0333333
-19.0157 149.844 118.848 -37.7085 77.9786 132.682 0.103456 1.85784 10.5485 -2.98575 19.9947 178.711 43.5 -4.2e-05 1e-05 -56.787 -6.39012 -4.28998 42.3722 1.9e-05 0 93.8706 9.8587 -2.00095 17.3 0 3e-06 21.4546 -1e-06 0.003093 0.103456 1.85782 -10.5485 -17.2591 -4.49434 172.01 43.5 -2.7e-05 4e-06 -24.7479 2.84907 3.91071 42.3723 0 1e-05 56.5111 14.6161 -8.28412 17.3 -6e-06 1.7e-05 21.4546 -1.9e-05 -0.003116 6.90197 -2.60373 -3e-06 9.81298 -0.436011 0.240217 12.5881 1e-05 8e-06 9.62151 -0.705979 0.586863 12.3432 -1.8e-05 -5e-06 9.31072 -0.525149 0.645134 25.8329 2.3e-05 7e-06 1.22024 0.156354 -2.43265 11.7666 -8e-06 -6e-06 12.0016 -8.6759 19.2293 19.7459 -1.48035 6.0001 176.839 -6.1916 -90.7334 11.2841 1.8e-05 -2e-05 -19.2146 -9.97278 60.8413 33 -1.3e-05 1.9e-05 -59.5916 1.58179 0.0303306 25.2 3.2e-05 1.1e-05 -31.856 31.8666 4.379 19.7461 -1.48036 -6.00008 -163.812 -7.32887 64.6341 11.2841 0 -1e-06 -1.34226 -9.55852 -35.2908 33.0001 1.6e-05 -1e-06 -44.7438 4.10792 17.6734 25.1998 0.000123 0.000432 8.33678 -15.0912 9.81648 
-18.8999 147.442 121.398 -34.2595 78.2661 129.255 0.103456 1.85784 10.5485 -4.03493 20.0973 -179.594 43.5 -4.2e-05 1e-05 -63.3656 -5.92285 -5.07807 42.3722 1.9e-05 1.42109e-14 96.1842 9.92967 -2.32371 17.3 0 3e-06 21.4546 -1e-06 0.003093 0.103456 1.85782 -10.5485 -14.4025 -7.92865 172.675 43.5 -2.7e-05 4e-06 -19.6311 3.98715 5.32451 42.3723 -2.84217e-14 1e-05 53.6624 16.2126 -8.29289 17.3 -6e-06 1.7e-05 21.4546 -1.9e-05 -0.003116 6.90197 -2.60373 -3e-06 9.81005 -0.248744 0.0940675 12.5881 1e-05 8e-06 9.61074 -0.360226 0.261252 12.3432 -1.8e-05 -5e-06 9.29596 -0.200398 0.298727 25.8329 2.3e-05 7e-06 0.954902 0.169829 -2.29158 11.7666 -8e-06 -6e-06 11.4872 -8.89993 19.6835 19.7459 -1.48035 6.0001 177.07 -7.03319 -90.4593 11.2841 1.8e-05 -2e-05 -18.5936 -9.74947 59.4751 33 -1.3e-05 1.9e-05 -61.6097 1.01702 -0.369258 25.2 3.2e-05 1.1e-05 -31.6794 31.8702 4.34243 19.7461 -1.48036 -6.00008 -162.997 -7.26454 64.4947 11.2841 -1.42109e-14 -1e-06 -0.370737 -10.1715 -35.5557 33.0001 1.6e-05 -1e-06 -46.0249 3.89501 17.5594 25.1998 0.000123 0.000432 8.47915 -15.2011 9.7112 
-18.6663 144.751 124.047 -26.256 78.8618 121.602 0.103456 1.85784 10.5485 -3.85209 20.6486 -178.256 43.5 -4.2e-05 1e-05 -69.0537 -5.44604 -6.25376 42.3722 1.9e-05 0 98.8687 10.0497 -3.08811 17.3 -1.42109e-14 3e-06 21.4546 -1e-06 0.003093 0.103456 1.85782 -10.5485 -11.8144 -11.4878 173.296 43.5 -2.7e-05 4e-06 -16.9079 5.72568 6.45677 42.3723 0 1e-05 52.4442 17.1377 -9.79067 17.3 -6e-06 1.7e-05 21.4546 -1.9e-05 -0.003116 6.90197 -2.60373 -3e-06 9.83105 -0.0174774 -0.119232 12.5881 1e-05 8e-06 9.64829 0.0611692 -0.206072 12.3432 -1.8e-05 -5e-06 9.3289 0.191827 -0.193768 25.8329 2.3e-05 7e-06 0.655222 0.271994 -2.24911 11.7666 -8e-06 -6e-06 10.487 -9.02448 19.8636 19.7459 -1.48035 6.0001 177.563 -7.92397 -89.9514 11.2841 1.8e-05 -2e-05 -17.4516 -9.43825 58.2964 33 -1.3e-05 1.9e-05 -63.4438 0.502655 -0.832235 25.2 3.2e-05 1.1e-05 -31.8877 31.9121 4.21611 19.7461 -1.48036 -6.00008 -162.489 -7.04667 64.3095 11.2841 -1.42109e-14 -1e-06 0.346636 -11.417 -35.1854 33.0001 1.6e-05 -1e-06 -48.2782 3.57202 17.2172 25.1998 0.000123 0.000432 8.30327 -15.6106 9.80974 
-18.3644 141.904 126.813 -15.2525 79.3602 111.1 0.103456 1.85784 10.5485 -3.02747 21.1485 -177.27 43.5 -4.2e-05 1e-05 -74.3989 -5.02809 -7.59997 42.3722 1.9e-05 0 101.282 10.3152 -3.93037 17.3 0 3e-06 21.4546 -1e-06 0.003093 0.103456 1.85782 -10.5485 -9.51638 -13.5806 173.806 43.5 -2.7e-05 4e-06 -16.2878 7.28394 7.06765 42.3723 2.84217e-14 1e-05 52.0444 17.6745 -12.1646 17.3 -6e-06 1.7e-05 21.4546 -1.9e-05 -0.003116 6.90197 -2.60373 -3e-06 9.82826 0.156146 -0.328862 12.5881 1e-05 8e-06 9.64096 0.367969 -0.655532 12.3432 -1.8e-05 -5e-06 9.3185 0.470088 -0.661336 25.8329 2.3e-05 7e-06 0.379111 0.226078 -2.17825 11.7666 -8e-06 -6e-06 9.62867 -9.3276 19.7821 19.7459 -1.48035 6.0001 178.138 -8.93145 -89.4672 11.2841 1.8e-05 -2e-05 -15.8717 -9.29301 57.8046 33 -1.3e-05 1.9e-05 -64.2774 -0.0935699 -1.12252 25.2 3.2e-05 1.1e-05 -31.7845 31.8966 4.07591 19.7461 -1.48036 -6.00008 -162.226 -6.81649 64.0957 11.2841 0 -1e-06 0.920867 -12.9027 -34.2888 33.0001 1.6e-05 -1e-06 -50.8475 3.05911 16.9119 25.1998 0.000123 0.000432 7.62505 -16.2974 10.2178 
-18.1014 138.945 129.698 -3.09192 79.6351 99.3145 0.103456 1.85784 10.5485 -2.41975 21.0189 -175.961 43.5 -4.2e-05 1e-05 -80.2394 -4.08365 -9.49576 42.3722 1.9e-05 1.42109e-14 102.374 11.2616 -4.97571 17.3 1.42109e-14 3e-06 21.4546 -1e-06 0.003093 0.103456 1.85782 -10.5485 -7.59088 -13.176 174.202 43.5 -2.7e-05 4e-06 -17.2748 7.4592 7.26104 42.3723 0 1e-05 51.2249 17.237 -13.3962 17.3 -6e-06 1.7e-05 21.4546 -1.9e-05 -0.003116 6.90197 -2.60373 -3e-06 9.72909 0.217195 -0.453622 12.5881 1e-05 8e-06 9.44269 0.464984 -0.914975 12.3432 -1.8e-05 -5e-06 9.11959 0.547843 -0.926355 25.8329 2.3e-05 7e-06 0.155317 -0.421954 -1.97531 11.7666 -8e-06 -6e-06 9.43722 -10.1756 19.0335 19.7459 -1.48035 6.0001 178.776 -9.91039 -88.632 11.2841 1.8e-05 -2e-05 -14.1351 -9.06884 57.6311 33 -1.3e-05 1.9e-05 -64.0664 -0.209539 -1.31319 25.2 3.2e-05 1.1e-05 -31.3906 31.8869 3.9586 19.7461 -1.48036 -6.00008 -162.097 -6.71674 63.9461 11.2841 -1.42109e-14 -1e-06 1.40466 -13.9012 -33.3786 33.0001 1.6e-05 -1e-06 -52.7898 2.49021 16.8589 25.1998 0.000123 0.000432 6.76202 -17.0148 10.8565 
